HIERARCHY
ROOT Hips
{
	OFFSET 0.717293 88.513641 3.606412
	CHANNELS 6 Xposition Yposition Zposition Zrotation Yrotation Xrotation 
	JOINT Spine
	{
		OFFSET -0.000000 8.814246 -2.080107
		CHANNELS 3 Zrotation Yrotation Xrotation
		JOINT Spine1
		{
			OFFSET -0.000000 8.844141 -0.000000
			CHANNELS 3 Zrotation Yrotation Xrotation
			JOINT Spine2
			{
				OFFSET 0.000000 11.682268 0.000000
				CHANNELS 3 Zrotation Yrotation Xrotation
				JOINT Spine3
				{
					OFFSET 0.000000 11.746700 -0.000000
					CHANNELS 3 Zrotation Yrotation Xrotation
					JOINT Neck
					{
						OFFSET 0.000000 17.658264 0.000000
						CHANNELS 3 Zrotation Yrotation Xrotation
						JOINT Neck1
						{
							OFFSET -0.000000 5.101515 -0.000000
							CHANNELS 3 Zrotation Yrotation Xrotation
							JOINT Head
							{
								OFFSET -0.000000 5.101515 -0.000000
								CHANNELS 3 Zrotation Yrotation Xrotation
								JOINT HeadEnd
								{
									OFFSET -0.000000 11.655085 -0.000000
									CHANNELS 3 Zrotation Yrotation Xrotation
									End Site
									{
										OFFSET 0.000000 0.000000 0.000000
									}
								}
							}
						}
					}
					JOINT RightShoulder
					{
						OFFSET -2.625389 11.175210 -0.000000
						CHANNELS 3 Zrotation Yrotation Xrotation
						JOINT RightArm
						{
							OFFSET 0.000000 10.434715 0.000000
							CHANNELS 3 Zrotation Yrotation Xrotation
							JOINT RightForeArm
							{
								OFFSET 0.000000 29.628420 0.000000
								CHANNELS 3 Zrotation Yrotation Xrotation
								JOINT RightHand
								{
									OFFSET 0.000000 22.857611 -0.000000
									CHANNELS 3 Zrotation Yrotation Xrotation
									JOINT RightHandThumb1
									{
										OFFSET -2.867323 3.959563 2.944291
										CHANNELS 3 Zrotation Yrotation Xrotation
										JOINT RightHandThumb2
										{
											OFFSET 0.000000 3.350399 -0.000000
											CHANNELS 3 Zrotation Yrotation Xrotation
											JOINT RightHandThumb3
											{
												OFFSET 0.000000 3.756509 -0.000000
												CHANNELS 3 Zrotation Yrotation Xrotation
												JOINT RightHandThumb4
												{
													OFFSET -0.000000 3.147345 -0.000000
													CHANNELS 3 Zrotation Yrotation Xrotation
													End Site
													{
														OFFSET 0.000000 0.000000 0.000000
													}
												}
											}
										}
									}
									JOINT RightHandIndex1
									{
										OFFSET -0.086752 10.030893 2.345280
										CHANNELS 3 Zrotation Yrotation Xrotation
										JOINT RightHandIndex2
										{
											OFFSET -0.000000 4.061090 -0.000000
											CHANNELS 3 Zrotation Yrotation Xrotation
											JOINT RightHandIndex3
											{
												OFFSET -0.000000 3.248873 0.000000
												CHANNELS 3 Zrotation Yrotation Xrotation
												JOINT RightHandIndex4
												{
													OFFSET -0.000000 2.639709 0.000000
													CHANNELS 3 Zrotation Yrotation Xrotation
													End Site
													{
														OFFSET 0.000000 0.000000 0.000000
													}
												}
											}
										}
									}
									JOINT RightHandMiddle1
									{
										OFFSET 0.104102 9.502952 0.006768
										CHANNELS 3 Zrotation Yrotation Xrotation
										JOINT RightHandMiddle2
										{
											OFFSET 0.000000 4.568727 -0.000000
											CHANNELS 3 Zrotation Yrotation Xrotation
											JOINT RightHandMiddle3
											{
												OFFSET 0.000000 3.654981 -0.000000
												CHANNELS 3 Zrotation Yrotation Xrotation
												JOINT RightHandMiddle4
												{
													OFFSET 0.000000 2.741236 0.000000
													CHANNELS 3 Zrotation Yrotation Xrotation
													End Site
													{
														OFFSET 0.000000 0.000000 0.000000
													}
												}
											}
										}
									}
									JOINT RightHandRing1
									{
										OFFSET 0.086752 8.921708 -2.267442
										CHANNELS 3 Zrotation Yrotation Xrotation
										JOINT RightHandRing2
										{
											OFFSET -0.000000 4.061090 -0.000000
											CHANNELS 3 Zrotation Yrotation Xrotation
											JOINT RightHandRing3
											{
												OFFSET -0.000000 3.654981 0.000000
												CHANNELS 3 Zrotation Yrotation Xrotation
												JOINT RightHandRing4
												{
													OFFSET -0.000000 2.741236 0.000000
													CHANNELS 3 Zrotation Yrotation Xrotation
													End Site
													{
														OFFSET 0.000000 0.000000 0.000000
													}
												}
											}
										}
									}
									JOINT RightHandPinky1
									{
										OFFSET -0.173504 7.976997 -4.467199
										CHANNELS 3 Zrotation Yrotation Xrotation
										JOINT RightHandPinky2
										{
											OFFSET -0.000000 3.350399 -0.000000
											CHANNELS 3 Zrotation Yrotation Xrotation
											JOINT RightHandPinky3
											{
												OFFSET -0.000000 2.842763 0.000000
												CHANNELS 3 Zrotation Yrotation Xrotation
												JOINT RightHandPinky4
												{
													OFFSET 0.000000 2.639709 -0.000000
													CHANNELS 3 Zrotation Yrotation Xrotation
													End Site
													{
														OFFSET 0.000000 0.000000 0.000000
													}
												}
											}
										}
									}
									JOINT RightForeArmEnd
									{
										OFFSET 0.000000 0.000000 0.000000
										CHANNELS 3 Zrotation Yrotation Xrotation
										End Site
										{
											OFFSET 0.000000 0.000000 0.000000
										}
									}
								}
								JOINT RightArmEnd
								{
									OFFSET 0.000000 0.000000 0.000000
									CHANNELS 3 Zrotation Yrotation Xrotation
									End Site
									{
										OFFSET 0.000000 0.000000 0.000000
									}
								}
							}
						}
					}
					JOINT LeftShoulder
					{
						OFFSET 2.625389 11.175210 -0.000000
						CHANNELS 3 Zrotation Yrotation Xrotation
						JOINT LeftArm
						{
							OFFSET 0.000000 10.813635 0.000000
							CHANNELS 3 Zrotation Yrotation Xrotation
							JOINT LeftForeArm
							{
								OFFSET -0.000000 28.724781 -0.000000
								CHANNELS 3 Zrotation Yrotation Xrotation
								JOINT LeftHand
								{
									OFFSET 0.644384 25.716167 -0.328871
									CHANNELS 3 Zrotation Yrotation Xrotation
									JOINT LeftHandThumb1
									{
										OFFSET 2.867323 3.959563 2.944291
										CHANNELS 3 Zrotation Yrotation Xrotation
										JOINT LeftHandThumb2
										{
											OFFSET 0.000000 3.350399 0.000000
											CHANNELS 3 Zrotation Yrotation Xrotation
											JOINT LeftHandThumb3
											{
												OFFSET 0.000000 3.756509 0.000000
												CHANNELS 3 Zrotation Yrotation Xrotation
												JOINT LeftHandThumb4
												{
													OFFSET -0.000000 3.100000 0.000000
													CHANNELS 3 Zrotation Yrotation Xrotation
													End Site
													{
														OFFSET 0.000000 0.000000 0.000000
													}
												}
											}
										}
									}
									JOINT LeftHandIndex1
									{
										OFFSET 0.086752 10.030893 2.345280
										CHANNELS 3 Zrotation Yrotation Xrotation
										JOINT LeftHandIndex2
										{
											OFFSET -0.000000 4.061090 -0.000000
											CHANNELS 3 Zrotation Yrotation Xrotation
											JOINT LeftHandIndex3
											{
												OFFSET -0.000000 3.248873 -0.000000
												CHANNELS 3 Zrotation Yrotation Xrotation
												JOINT LeftHandIndex4
												{
													OFFSET -0.000000 2.639709 -0.000000
													CHANNELS 3 Zrotation Yrotation Xrotation
													End Site
													{
														OFFSET 0.000000 0.000000 0.000000
													}
												}
											}
										}
									}
									JOINT LeftHandMiddle1
									{
										OFFSET -0.104102 9.502952 0.006768
										CHANNELS 3 Zrotation Yrotation Xrotation
										JOINT LeftHandMiddle2
										{
											OFFSET 0.000000 4.568727 -0.000000
											CHANNELS 3 Zrotation Yrotation Xrotation
											JOINT LeftHandMiddle3
											{
												OFFSET 0.000000 3.654981 0.000000
												CHANNELS 3 Zrotation Yrotation Xrotation
												JOINT LeftHandMiddle4
												{
													OFFSET 0.000000 2.741236 0.000000
													CHANNELS 3 Zrotation Yrotation Xrotation
													End Site
													{
														OFFSET 0.000000 0.000000 0.000000
													}
												}
											}
										}
									}
									JOINT LeftHandRing1
									{
										OFFSET -0.086752 8.921708 -2.267442
										CHANNELS 3 Zrotation Yrotation Xrotation
										JOINT LeftHandRing2
										{
											OFFSET -0.000000 4.061090 -0.000000
											CHANNELS 3 Zrotation Yrotation Xrotation
											JOINT LeftHandRing3
											{
												OFFSET 0.000000 3.654981 0.000000
												CHANNELS 3 Zrotation Yrotation Xrotation
												JOINT LeftHandRing4
												{
													OFFSET -0.000000 2.741236 -0.000000
													CHANNELS 3 Zrotation Yrotation Xrotation
													End Site
													{
														OFFSET 0.000000 0.000000 0.000000
													}
												}
											}
										}
									}
									JOINT LeftHandPinky1
									{
										OFFSET 0.173504 7.976997 -4.467199
										CHANNELS 3 Zrotation Yrotation Xrotation
										JOINT LeftHandPinky2
										{
											OFFSET 0.000000 3.350399 -0.000000
											CHANNELS 3 Zrotation Yrotation Xrotation
											JOINT LeftHandPinky3
											{
												OFFSET 0.000000 2.842763 0.000000
												CHANNELS 3 Zrotation Yrotation Xrotation
												JOINT LeftHandPinky4
												{
													OFFSET -0.000000 2.639709 -0.000000
													CHANNELS 3 Zrotation Yrotation Xrotation
													End Site
													{
														OFFSET 0.000000 0.000000 0.000000
													}
												}
											}
										}
									}
									JOINT LeftForeArmEnd
									{
										OFFSET 0.000000 0.000000 0.000000
										CHANNELS 3 Zrotation Yrotation Xrotation
										End Site
										{
											OFFSET 0.000000 0.000000 0.000000
										}
									}
								}
								JOINT LeftArmEnd
								{
									OFFSET 0.000000 0.000000 0.000000
									CHANNELS 3 Zrotation Yrotation Xrotation
									End Site
									{
										OFFSET 0.000000 0.000000 0.000000
									}
								}
							}
						}
					}
				}
			}
		}
	}
	JOINT RightUpLeg
	{
		OFFSET -11.289943 0.000000 -0.000000
		CHANNELS 3 Zrotation Yrotation Xrotation
		JOINT RightLeg
		{
			OFFSET 0.000000 -38.200325 -0.000000
			CHANNELS 3 Zrotation Yrotation Xrotation
			JOINT RightFoot
			{
				OFFSET -0.000000 -39.900856 -0.000000
				CHANNELS 3 Zrotation Yrotation Xrotation
				JOINT RightToeBase
				{
					OFFSET -0.000000 0.000000 15.261641
					CHANNELS 3 Zrotation Yrotation Xrotation
					JOINT RightToeBaseEnd
					{
						OFFSET 0.000000 0.000000 7.370709
						CHANNELS 3 Zrotation Yrotation Xrotation
						End Site
						{
							OFFSET 0.000000 0.000000 0.000000
						}
					}
				}
				JOINT RightLegEnd
				{
					OFFSET 0.000000 0.000000 0.000000
					CHANNELS 3 Zrotation Yrotation Xrotation
					End Site
					{
						OFFSET 0.000000 0.000000 0.000000
					}
				}
			}
			JOINT RightUpLegEnd
			{
				OFFSET 0.000000 0.000000 0.000000
				CHANNELS 3 Zrotation Yrotation Xrotation
				End Site
				{
					OFFSET 0.000000 0.000000 0.000000
				}
			}
		}
	}
	JOINT LeftUpLeg
	{
		OFFSET 11.315661 -0.000000 -0.000000
		CHANNELS 3 Zrotation Yrotation Xrotation
		JOINT LeftLeg
		{
			OFFSET 0.000000 -38.200325 0.000000
			CHANNELS 3 Zrotation Yrotation Xrotation
			JOINT LeftFoot
			{
				OFFSET 0.000000 -39.900856 0.000000
				CHANNELS 3 Zrotation Yrotation Xrotation
				JOINT LeftToeBase
				{
					OFFSET 0.000000 -0.000000 15.261641
					CHANNELS 3 Zrotation Yrotation Xrotation
					JOINT LeftToeBaseEnd
					{
						OFFSET -0.000000 0.000000 7.539996
						CHANNELS 3 Zrotation Yrotation Xrotation
						End Site
						{
							OFFSET 0.000000 0.000000 0.000000
						}
					}
				}
				JOINT LeftLegEnd
				{
					OFFSET 0.000000 0.000000 0.000000
					CHANNELS 3 Zrotation Yrotation Xrotation
					End Site
					{
						OFFSET 0.000000 0.000000 0.000000
					}
				}
			}
			JOINT LeftUpLegEnd
			{
				OFFSET 0.000000 0.000000 0.000000
				CHANNELS 3 Zrotation Yrotation Xrotation
				End Site
				{
					OFFSET 0.000000 0.000000 0.000000
				}
			}
		}
	}
}
MOTION
Frames: 4
Frame Time: 0.016667
5.736293 88.101410 10.646375 -0.521206 -0.774105 -13.693016 1.544255 0.052668 8.350533 0.245493 0.001089 0.640543 -1.067829 0.264560 7.725358 -1.005534 0.043710 3.928863 3.043626 -2.527109 6.176189 0.309934 -0.895677 -3.548012 0.565112 -0.844237 -22.146244 0.000000 0.000000 0.000000 89.420013 0.245979 11.157760 51.469437 3.719999 15.140226 -0.871763 18.971039 80.831856 25.168491 35.489716 13.407371 8.508051 -1.591750 40.890244 -0.000001 0.000005 -20.664940 0.000007 0.000055 -14.252355 -0.000005 0.000003 0.000000 0.097643 0.242899 2.444333 1.571509 -0.060232 0.320138 1.462136 -0.045339 0.268176 -0.000015 0.000033 -0.000000 0.216203 0.059587 -2.066649 1.519272 -0.041953 0.098122 1.646333 -0.007602 0.089611 -0.000007 0.000161 0.000000 3.568704 -0.074046 -8.030375 2.824610 0.065802 -0.148718 2.877787 0.027777 -0.098918 0.000007 0.001915 0.000004 7.089980 -0.162281 -15.202998 4.444644 0.188216 -0.171049 4.480317 0.051292 -0.203157 -0.000755 0.000014 -0.000020 0.000000 0.000000 0.000000 0.000000 0.000000 0.000000 -86.738319 -0.562838 5.778862 -65.233490 -3.564019 2.333899 -0.034094 -15.850274 105.853920 -66.708206 -48.802509 43.513485 -6.869859 1.384258 41.560020 0.000005 0.000008 -16.885366 -0.000008 -0.000031 -11.744987 0.000694 0.000013 -0.000176 4.554940 0.188800 2.292748 0.632993 -0.084890 -0.230070 0.643083 -0.063194 -0.168299 0.000014 -0.000090 -0.000014 1.695519 0.067171 -3.352993 0.024643 -0.047812 -0.087282 0.240924 -0.017449 -0.075545 -0.000036 0.000007 0.000044 -5.673538 -0.063079 -11.350899 -3.031617 0.083054 0.064649 -2.713260 0.020026 0.048924 0.000152 0.000008 -0.000001 -11.823550 -0.204269 -19.895941 -7.186405 0.176887 0.190257 -7.184484 0.060582 0.101673 -0.000918 0.000007 -0.000048 0.000000 0.000000 0.000000 0.000000 0.000000 0.000000 -5.510527 -14.654427 20.675360 -0.133601 -0.918648 4.441170 1.662104 -9.925663 15.701064 -1.272364 1.180806 -16.752565 0.000000 0.000000 0.000000 0.000000 0.000000 0.000000 0.000000 0.000000 0.000000 4.851099 -2.249418 14.489864 0.191575 0.910084 11.107297 -1.129044 1.040390 14.735863 0.638865 -0.956554 -19.816713 0.000000 0.000000 0.000000 0.000000 0.000000 0.000000 0.000000 0.000000 0.000000 
5.690883 88.087242 10.643567 -0.531802 -0.649110 -13.722284 1.543938 0.064927 8.370051 0.272935 0.008004 0.573863 -1.148882 0.283659 7.815339 -1.003278 0.044568 3.878585 3.104846 -2.613835 6.203446 0.315682 -0.960048 -3.543737 0.575393 -0.859349 -22.126625 0.000000 0.000000 0.000000 89.474693 0.241274 11.247481 51.402168 3.263763 15.316036 -0.869088 18.995628 80.054710 25.098824 36.053444 13.043400 8.523768 -1.600006 40.873245 -0.000000 0.000006 -20.723694 0.000007 0.000055 -14.293956 -0.000005 0.000003 0.000000 0.237457 0.237883 2.371533 1.509553 -0.060995 0.325292 1.395987 -0.046082 0.272514 -0.000015 0.000033 -0.000001 0.378194 0.057985 -2.091938 1.473288 -0.041843 0.099509 1.604088 -0.007787 0.090504 -0.000007 0.000165 0.000001 3.804958 -0.072227 -7.967023 2.831395 0.064784 -0.145271 2.877800 0.027199 -0.096385 0.000007 0.001842 0.000004 7.330001 -0.158141 -15.061077 4.488143 0.183736 -0.153199 4.528464 0.047674 -0.189202 -0.000758 0.000014 -0.000020 0.000000 0.000000 0.000000 0.000000 0.000000 0.000000 -86.775826 -0.583618 5.856404 -65.168365 -3.516512 2.945548 -0.063319 -15.771949 105.910217 -66.948730 -49.281731 44.049610 -6.888101 1.386801 41.549961 0.000005 0.000008 -16.925890 -0.000007 -0.000031 -11.780864 0.000729 0.000013 -0.000167 4.481695 0.186453 2.377831 0.626296 -0.085048 -0.232110 0.634509 -0.063702 -0.169404 0.000014 -0.000036 -0.000013 1.627304 0.066263 -3.255475 0.016063 -0.047909 -0.088449 0.235707 -0.017626 -0.076139 -0.000102 0.000008 0.000046 -5.740513 -0.061882 -11.220360 -3.034174 0.083105 0.066127 -2.722662 0.020327 0.049997 0.000222 0.000008 -0.000001 -11.920233 -0.201695 -19.735756 -7.198560 0.177054 0.194122 -7.198995 0.060997 0.106354 -0.000911 0.000007 -0.000049 0.000000 0.000000 0.000000 0.000000 0.000000 0.000000 -5.471582 -14.665858 20.708599 -0.132597 -0.911716 4.464005 1.649343 -10.021849 15.660616 -1.264454 1.176843 -16.747379 0.000000 0.000000 0.000000 0.000000 0.000000 0.000000 0.000000 0.000000 0.000000 4.862796 -2.343358 14.453330 0.191406 0.915393 11.140994 -1.139537 1.027994 14.740449 0.648524 -0.957636 -19.803160 0.000000 0.000000 0.000000 0.000000 0.000000 0.000000 0.000000 0.000000 0.000000 
5.642083 88.073425 10.643598 -0.540322 -0.515148 -13.750463 1.540745 0.075827 8.389288 0.300575 0.014792 0.513327 -1.231333 0.311364 7.903252 -0.996623 0.045110 3.845504 3.183144 -2.713407 6.230096 0.324814 -1.027344 -3.528071 0.589133 -0.873778 -22.105364 0.000000 0.000000 0.000000 89.535759 0.228472 11.310514 51.325657 2.712371 15.400499 -0.861428 19.027256 79.217346 25.075350 36.634354 12.656342 8.536798 -1.607344 40.858261 0.000000 0.000007 -20.775835 0.000008 0.000055 -14.329556 -0.000005 0.000003 -0.000000 0.376098 0.232879 2.286031 1.450392 -0.061237 0.329404 1.333051 -0.046408 0.275570 -0.000015 0.000033 -0.000002 0.532931 0.056426 -2.127888 1.428462 -0.041524 0.100532 1.562546 -0.007849 0.091115 -0.000006 0.000168 0.000001 4.016037 -0.070177 -7.917492 2.834212 0.063517 -0.141596 2.874408 0.026520 -0.093651 0.000007 0.001761 0.000005 7.534406 -0.154172 -14.936543 4.523296 0.178764 -0.135732 4.567791 0.043956 -0.175158 -0.000758 0.000013 -0.000021 0.000000 0.000000 0.000000 0.000000 0.000000 0.000000 -86.813889 -0.598266 5.905988 -65.061409 -3.391978 3.452206 -0.090113 -15.691424 105.916222 -67.034248 -49.778511 44.445904 -6.899103 1.387949 41.543766 0.000005 0.000008 -16.948866 -0.000007 -0.000031 -11.805533 0.000760 0.000012 -0.000180 4.421448 0.184074 2.476781 0.605897 -0.084857 -0.233918 0.612377 -0.063922 -0.170215 0.000015 0.000025 -0.000013 1.578360 0.065384 -3.145940 -0.000944 -0.047803 -0.089451 0.222845 -0.017743 -0.076648 -0.000155 0.000008 0.000049 -5.767555 -0.060712 -11.079077 -3.029049 0.082862 0.067998 -2.724013 0.020549 0.051286 0.000297 0.000007 -0.000001 -11.958282 -0.199136 -19.564365 -7.190754 0.176700 0.200715 -7.192834 0.061285 0.112636 -0.000904 0.000007 -0.000049 0.000000 0.000000 0.000000 0.000000 0.000000 0.000000 -5.432577 -14.687848 20.749435 -0.131619 -0.904341 4.485491 1.634481 -10.129921 15.612898 -1.256010 1.173666 -16.742302 0.000000 0.000000 0.000000 0.000000 0.000000 0.000000 0.000000 0.000000 0.000000 4.871980 -2.442307 14.414207 0.190905 0.919785 11.170658 -1.145715 1.007484 14.746404 0.658807 -0.958905 -19.786697 0.000000 0.000000 0.000000 0.000000 0.000000 0.000000 0.000000 0.000000 0.000000 
5.589565 88.059418 10.646106 -0.546627 -0.372996 -13.776875 1.535382 0.085078 8.408152 0.326432 0.021341 0.461299 -1.309267 0.344249 7.983292 -0.985876 0.044649 3.828606 3.273026 -2.819752 6.252859 0.336979 -1.093641 -3.503160 0.604904 -0.886999 -22.082745 0.000000 0.000000 0.000000 89.598328 0.209045 11.345490 51.241943 2.092932 15.385627 -0.848694 19.060146 78.402229 25.128057 37.210712 12.300266 8.550162 -1.613872 40.844101 0.000000 0.000007 -20.828341 0.000008 0.000055 -14.364135 -0.000004 0.000003 -0.000000 0.534966 0.228246 2.178867 1.405888 -0.060708 0.332200 1.284784 -0.046111 0.277216 -0.000014 0.000033 -0.000002 0.702807 0.055037 -2.181792 1.395744 -0.040899 0.101065 1.532801 -0.007708 0.091345 -0.000006 0.000169 0.000001 4.229852 -0.067965 -7.890228 2.845007 0.061874 -0.137507 2.878989 0.025643 -0.090594 0.000007 0.001676 0.000005 7.734921 -0.150215 -14.836893 4.561615 0.172966 -0.118149 4.609304 0.039781 -0.160580 -0.000756 0.000013 -0.000021 0.000000 0.000000 0.000000 0.000000 0.000000 0.000000 -86.852913 -0.607752 5.926391 -64.919235 -3.217330 3.840279 -0.111148 -15.609121 105.882133 -66.942520 -50.274689 44.689125 -6.903245 1.387837 41.541367 0.000004 0.000008 -16.955360 -0.000007 -0.000031 -11.819166 0.000786 0.000012 -0.000218 4.373573 0.181807 2.586035 0.573396 -0.084062 -0.234460 0.578811 -0.063589 -0.169925 0.000015 0.000095 -0.000012 1.548841 0.064566 -3.029254 -0.024273 -0.047407 -0.089827 0.203841 -0.017704 -0.076744 -0.000188 0.000008 0.000050 -5.755703 -0.059611 -10.936304 -3.014828 0.082167 0.069558 -2.716307 0.020566 0.052317 0.000375 0.000007 -0.000000 -11.936674 -0.196474 -19.394217 -7.161796 0.175370 0.207504 -7.165247 0.060993 0.118741 -0.000895 0.000007 -0.000049 0.000000 0.000000 0.000000 0.000000 0.000000 0.000000 -5.394970 -14.721604 20.794991 -0.130617 -0.896594 4.504588 1.619445 -10.248255 15.560152 -1.247396 1.170881 -16.737392 0.000000 0.000000 0.000000 0.000000 0.000000 0.000000 0.000000 0.000000 0.000000 4.878458 -2.542575 14.373441 0.190056 0.923217 11.193317 -1.146523 0.977693 14.753617 0.669276 -0.960029 -19.766447 0.000000 0.000000 0.000000 0.000000 0.000000 0.000000 0.000000 0.000000 0.000000 
